<mxfile host="app.diagrams.net" modified="2022-12-03T07:13:14.840Z" agent="5.0 (Windows NT 10.0; Win64; x64) AppleWebKit/537.36 (KHTML, like Gecko) Chrome/107.0.0.0 Safari/537.36" etag="jpagCvfymSWWvbjJT06V" version="20.6.0" type="github">
  <diagram id="SEg9n3wG__ElUB7BrxDW" name="第 1 页">
    <mxGraphModel dx="782" dy="436" grid="0" gridSize="10" guides="1" tooltips="1" connect="1" arrows="1" fold="1" page="1" pageScale="1" pageWidth="827" pageHeight="1169" math="0" shadow="0">
      <root>
        <mxCell id="0" />
        <mxCell id="1" parent="0" />
        <mxCell id="45IXkjVk5gc_Z_pYW6Ua-3" value="" style="edgeStyle=orthogonalEdgeStyle;rounded=0;orthogonalLoop=1;jettySize=auto;html=1;" edge="1" parent="1" source="45IXkjVk5gc_Z_pYW6Ua-1" target="45IXkjVk5gc_Z_pYW6Ua-2">
          <mxGeometry relative="1" as="geometry" />
        </mxCell>
        <mxCell id="45IXkjVk5gc_Z_pYW6Ua-1" value="开始" style="strokeWidth=2;html=1;shape=mxgraph.flowchart.start_1;whiteSpace=wrap;" vertex="1" parent="1">
          <mxGeometry x="355.5" y="221" width="93" height="38" as="geometry" />
        </mxCell>
        <mxCell id="45IXkjVk5gc_Z_pYW6Ua-5" value="" style="edgeStyle=orthogonalEdgeStyle;rounded=0;orthogonalLoop=1;jettySize=auto;html=1;" edge="1" parent="1" source="45IXkjVk5gc_Z_pYW6Ua-2" target="45IXkjVk5gc_Z_pYW6Ua-4">
          <mxGeometry relative="1" as="geometry" />
        </mxCell>
        <mxCell id="45IXkjVk5gc_Z_pYW6Ua-2" value="数据源调研：熟悉数据源搭建、测试连接和元数据获取方式" style="whiteSpace=wrap;html=1;strokeWidth=2;" vertex="1" parent="1">
          <mxGeometry x="336.5" y="284" width="131" height="51" as="geometry" />
        </mxCell>
        <mxCell id="45IXkjVk5gc_Z_pYW6Ua-4" value="测试数据源搭建" style="whiteSpace=wrap;html=1;strokeWidth=2;" vertex="1" parent="1">
          <mxGeometry x="335" y="361" width="134" height="50" as="geometry" />
        </mxCell>
      </root>
    </mxGraphModel>
  </diagram>
</mxfile>
